# xmcd CD database file
#
# Track frame offsets:
#	150
#	21067
#	37410
#	59717
#	80234
#	101160
#	115498
#	132031
#	143705
#	167571
#
# Disc length: 2548 seconds
#
# Revision: 0
# Processed by: cddbd v1.5.2PL0 Copyright (c) Steve Scherf et al.
# Submitted via: CDex 1.51
#
DISCID=9309f20a
DTITLE=Paul Zimmer - Soaring With The Wind
DYEAR=1999
DGENRE=New Age
TTITLE0=Dance Of The Young Wolves
TTITLE1=The Warbler
TTITLE2=Song Of The Rising Sun
TTITLE3=The Predator's Hunt
TTITLE4=Soaring With The Wind
TTITLE5=Twilight Echoes
TTITLE6=Salute To The Sea
TTITLE7=Amazing Grace
TTITLE8=Coming Of The Rain
TTITLE9=Reflections
EXTD=YEAR: 1999
EXTT0=
EXTT1=
EXTT2=
EXTT3=
EXTT4=
EXTT5=
EXTT6=
EXTT7=
EXTT8=
EXTT9=
PLAYORDER=
